<svg id="Sri_Lanka" data-name="Sri Lanka" xmlns="http://www.w3.org/2000/svg" viewBox="0 0 306.71 540.75"><defs><style>.cls-1{fill:none;stroke:#000;stroke-linecap:round;stroke-linejoin:round;stroke-width:0.75px;}</style></defs><path class="cls-1" d="M420.52,146.68l0,2.17,1.63,1.15h0l-1.46,1.36-1.29,1.54h0l2.15,1.7,2.32-.18,1.9-1.78,1.4-2.47.91-2.28h0l4.94,6,4.39,7.56,1.8,1.88,2.5.73,2,1.62,2.94,7.16.75.78.79.84h0l3.37,1.53,1.68,3.6,1.93,7.25.34-1.33L456,185l.74.17h0l1.33.73-.4,1.33,3.81,4.17,1.27,2.07V196l-1,1-1.43.66-1.3,1.51h0l1-.25,1-.27.25-.14.51-.27h0l3,6.47.43,3.37-3.39.55h0l.71-2.23-.92-1.79-1.51-.26-1.08,2.38.36,1.85,1,1.32.54,1.4-1,2.13-.8-.61-1.49-1.17-2.37-1.47-2.4-.55-2.28,1L448.79,213l.63,1.25,2.12-.33,2.85-2.36,2,2.09,1.77,2.51,2.14,2.09,3,.87,6.29-.13,2.13-1.35-1.4-3.24,3.6-1.66,1.42-.43,1.52.1h0l1.66,1L480,215l1.13,1.9,1,5.54,2.14,7.13.07,1.86.07,1.86-1.74-1.22-1.82-3.67-1.59-.78-.06,1,.66,4.5,0,.34.75,1.72.92.44.83.39h1.87l1.47.67.87,5.29,1.05,3.67.18.61.29,2.24v0l.42,1.43,2.85,9.67,1.09,6.29L490,269.32v0l-1.38-5.7-.2-.81-2.09-5.77h-1l-.17,4.38.17,1.38-.1,0-.1.39h0v.69l.2.83.46.54,1.16.36h0l.23.44,1.12,2.89,2.4,1.77h0l2.3-.19.8-3h.84l.87,1.59.23.42,1.13,5,1.14,1.92,1.53,1.68,1,1.63,1.69,3.91.67-.68.88-.66.4-.64.61,1.29-.61.69.31.49.26.33.05.08.15.28.09.62h0l.68-.57,1.41-.67.71-.55h0l.32.77.39,1-.29,1.12-.47,1.11,0,.86,0,.84,1,1.85,1.69,1.3,1.11.85,1,1.66-.64,0-.32.22-.41.28-.26.16-.25.16-.41,1.51-.4,1.51,1.61,4.71.87,1,2,2.26h0l2.9-.53h.93l.95,2.89,1.08,1.78.34.55,5.9,6.19,1.91,3,.33,2.67-3,.91h0l-1.4-1-3.37-4.29-1.76-1.52-2.27-.84h0l-.23,0-1.62.14-1.42,1.47-1,3.06,1.64.75,1.58.22,1.36-.5,1-1.41,1.62.6,1.48.75.51.6.35.42-.21,1.49,1.81,1.7,1.82,1.71,1.43,1.64,1.49,2.49h0l-.7.81-.18.8.23.95.66,1.3.85-1-.52-1.88h0l1.62.58,3.18,2.35.75,1.1,2.52,6.44-.15.27-.78,3.5.11.38,0,.06.65,1.34.15.53-.53.95-1,.76-.59.85.7,1.22.67.88.23.69,0,.09.4.79,1,.89-1.47,1.07.13.52.13.54,1.11.23,1.1-1.42h.86l1,5.57,0,2.05h1V365l.11-1.94.34-1.91.58-1.63.84-1.15v-.94l-.08-.22-.3-.87.25-.43.76.32,1.22,1.19.43,1.09.31,2.93,2.1,3.35,3.42,11.75L551,409l.33,2.18,1.41,4.88.22,2.87-.78,5.49-6.31,21.89-.35,2.25-.14,3-.47,2.49-2,3.84-.43,1.72-.78,2.36-2.65,4.15-1.25,1.95.93,3.36-1.5,4-8.71,13.8-1.22-.4L524,487.76l-2.28-2.6-1.75-.24-1.58-.1-4.09-5.05,3.57-50.59-.68-2.73-1.64-2.36v-2.66l-1-2.65.63-2.73.27-2.59-4-2.44-4.89-1.26-.7-.63-.85-.51h-1l-1.11-.48-1.06-1.89-.55-2.14-1.77-3.23,1.6-4.28,2.86-3.39,2.22-1.75-3-4.13-.4-3L500.93,381l-3-2.64-.55-2.66.2-3.29-1.63-7.27.27-1.86-.9-.16-.87-.52,2-3.15-2.69-.73-3.43,1.84-1.65.57-1.52.68-.51,1.29-.93,1.48-1.9.49-1.4.11,0,1.8.75,1.63.16,1.62-.63,1.36-.94,1.15-.64,1-2.77,1.54-3.4-.15v5.3l.73,5.15-2.55,1.87-2.78,1-1.2-2.24-1.07-2.67-.48-2.48-1.24-2.49-.94-1.6-.57-1.23-1.68-.32-1.19.29-2-2-1.52-3.23-.89-6.07-.55-1.72-.41-1.71.38-1.24.76-1.42,1.45-6.71-.53-6.91-6.08-1.32-6.72,3.77-2.92,2.7-1.65.64-1.38.32-2.49.88L434.05,346,433,342.66l-.18-2.25-.89-2-2.07-1.27-.38-.37,1.32-6.54-.3-2.66-1-3.11.1-2.31h2.57l5.11-.49,2.51-.44,5,1.92,4.05,4.07,6.62,2.06,3.23,1.85,2.67.32.33-1.42.63-1.62.88-.92.75-1.48-.43-3.26.63-3.11L462.16,309l1.2-10.63,1-4,3.08-2.07,3.92-.55,5,.66,1.26-.1-1.13-5.15-2.29-5-1-5.09,1.11-21.81-.73-7.21h-3.83l-1.25,1.34-.9,1.66-1,.77-.95.83-.87,3.61-.69,1.33-1.94,4.54-3.44.78-.66-.22-.54-.39,1.59-1,.73-1.72-.48-2.63.06-1.78-.22-1.76-1-1.39-1.73.14L454,250.85l-2.21-1.7-2.27-1.3h-2.45l-10.38-2.54-5.77.57-1.71-1.73-.57-2.88-2.09-1.65-2.22-.86-1.6-2.37-2.05.6,3-10.63.31-1.74.56-1.67,1.69-1.67,1.95-1.27,1.13-2-.92-2.13-1.58-1.23-1.23-1.56-1.93-4.6-3.62-5.4-.57-3.3L418,198.32,416.85,197l-.12-2.83,2.13-5-1.05-2.89-2.53-5.57-.09-6,2.32-3.44,1.6-3.59-1.3-1-1.11-1.49L414.6,163l-6-4.18-3.5-2-4-.09-3.86,1.59.61-2.43,1.13-2,5.38-2.52,6.34-.82,2.62-.76,2.37-1.41,2.64-.75,2.16-1ZM532.23,330.51l-.23-1.45-.54-1.12-.65-1.39-.45-1.35.07-1.43.42-1.28.18-1.34-.67-1.6v0l1.76,1.72,1.68,4,1.24,1.84.3.8,1.27,3.43,3.33,5.31,1.54,2.44,2.32,12.05h0l-.09,2.75-2,1.68L539.75,354l-.59-.63-.28-.28-.09-.69-.1-.68,0-.28.56-8.7-.4-3-1.5-1.28-.57-1.23Z" transform="translate(-246.65 -29.63)"/><path class="cls-1" d="M379.86,82.06l16.22,13.19.14.25,1,1.61L398.72,99l2.94,2.78,1.87,2.44-1.66.87h0l-.94-.43-.11,0h0l-1.44-1.87-.79-.4h0l-2.47-.41-1.08.33.53,1.1.18.35,7.11,6.65,2.77,1.53h0l-1.1-1.72-.67-1.57.35-1.17,1.89-.45.89.61,1.45,4.3,1.33,2.65,5.2,10.43-1.05-.39L411,123.54l-1.82,0-.77,2,1.07.5,2.23.36,2,1.26,0,.17.29,3h.93l.46-.8.41-.34.47-.23.62-.44h0l.71,2.76.07.34,1.94,4.44,2.6,4,2.64,1.73.2.16.31.27v1l-.63,1-1.27.45-.37-.4-1.51-2.43-1.63-.87-3.76-1-2.18-1,1,1.4.56.78,4.94,4.64v.47h0l-2.16,1-2.64.75-2.37,1.41-2.62.76-6.34.82L399,153.9l-1.13,2-.61,2.43-3.76.71-3.6,1-4,2.79-10.19.35.25,3,3.57,1.24,2.52,3.27,1.14,3.58L380,176.9,378,179.26l-1.65,2.55-3,3.5-3.47,3.12-3.65,2.8-4.36,0-2.32-1.66-2.53-1.35-4.17,1.92-5.4,7-2.54,6-2.44,1.06L340.43,208l-1.33-.08-1.43-.4L334.78,206l-1.45-2.93-.51-1.88-.88-1.71-2-.92-2.08-.72-1.4-3.9-.05-4.5-13.32,3.51-6.72,0-6.1-2.5,1.09,8.12-.28,12.83-1.32-.15-1.13-.56L295,208.6l-3.51-1.49-4.05-.38-3.61-1.38-1.57-.91.51-.55.23-.69L284.3,199l.19-.18.1-.1.31-1.24,1.27-2.77,1.21-13.48-3.3-8.61.27-1.49.24-9.81v-.13l-.33-3.28-.4-1.62-.71-1.21-.56-1.39,1.27-.69,1.84-.34,1.21-.38,7.95-7.19L299,143l1.73-1.51.91-3.38,1.64-3.47.94-4.82,4.4-11.43.15-.64.42-1.67.84-3.38v-8.06l.3-1.18-.26-.79-1.61-.31-3.78-2L303.21,99l-.92-2.61-.16-.47-.65-3.25-.07-1.85,1.64-1.73,3-1.52,3.36-1.08,2.77-.41,1.23-.64,3-4,.35-.26.52-.41,1-.6,1.24-.46,1.57-.25L319.83,77,319.05,76l-.79-1.06-2-2-2.66-2-10.13-6-2-2.55,4.41.15L310,64.22,318.25,69l7.86,2,2.07,1.33,3.25,2.85.8,1.5-1.67.86.37,1,.49.95-.86.94h0l2.86,1.94,6.77-1.66,12.37-4.93,3.33.32,7.3,2,8.61,3.9,6.49,1.26h0L369,76.83l-3.21-1.49L363,74.72l-.42-.2-.42-.2-2.47-1.89-.94-.55-.93-.15-1.13.06-1.69.09-1.07.41-.16.24-.3.5-.53.28L351.07,72l-.72-.13L345.9,72l-1.27-.37-9.74-8.47-4.18-2.72h0l-1.49-.66-7-3.1-2.54-1.47-1.71,0,.33,3.38.94,1,1.47,1.12.87,1.37-.87,1.78-1,.31-1-.54-.91-.77-2.63-1.37L310,56.93l-3-1.27,0,0,1.49,1.65,2.7,2.33,1.49,1.7-3.32-.64-3.28-1.38-6.58-3.68-5.25-4.14-3.12-1.11-.31-.19-1.18-.77L288.57,49l-.16,1-1.51-1-.57-1.34-.26-1.6-.54-1.81-.9-1.54-.54-.7-1.4-1.85-.9-1.6,3-1.49,5.39-5,2.43-1.09h0l10.7.95,5.58-.63,2,.24.8,1.86-.13,2.91.4,1,1.17.38,1.14.17,3.27.85.7.37.61,1.22,1.47,0,1.16-.36.44-.13.67-.1.47-.07h0l1.06.62.46.27,3.83,4.19,5.52,6,6.56,7.16,4.26,2.69,9.87,4.58.31.14v-1l-5-2.53-12-9.89-9.87-11.44-5-2.7-7.86-1.87-2.07-1.49-.27-2.11,2.88-1.26.94-.16,2.85-.48,5.67-.28,2.73.51,1.89,1.34,1.26,4.55,1.26,1.9,17.93,21.16,2.64,1.95,5.35,3.07ZM257.29,75.75l-1.09,1-1.11,1-3.46.2L248.42,77,247,75.24V69.55l.4-1.46.9.19.94,1.17.57,1.47,2.36.75,2.82.21.7.51Zm22.6-16.29-2.12-1.54-2.11-3.18-3.32-6.66,1.51-2.37.35-3.05.86-2.47,3-.65,1.58.48h0l.13,1.17-.53,1.63-.37,1.89.05,1.91.2,1.52,0,.09.12.3.47,1.1.62.72.49.57.58.14,2.65-.14.45.41.2,2.09.33.86,1.56,1,2.12.91,1.77,1,.15.32.46,1-.94,1h-1.81l-1.94-.61L285.06,58l-1-.24-2.46,1.46-1.73.2ZM255,134.65l-1.53-.6-.68-1.33.44-1.33,1.77-.61h6.12l2.71.7,2.79.72,5.84,2.23,5.57,3.25,4.68,4.55h0l-2.24-.47-3.94-2-2.32-.4,3.55,4.06,2.8,3.2,1.23,2.2-3.28-.41-2.14-1.66L274.9,145l-1.1-.86-1.42-.72-5.64-5L264,137.1l-2.8-1.26-2-.55L258,135Z" transform="translate(-246.65 -29.63)"/><path class="cls-1" d="M270.59,383.61l-5.92-43.33-.83-1.79.56-.61.43-.06,1,.67.22-2.39.68-2.77.17-1.33.16-1.33-.76-2.08-1-1.91-.2-1.26-.2-1.27v-5.09l-3.15-15.49-.37-1.79-1.63-3.4-1.38-7.15-2.24-5.65L252.64,270v-4.43l.55.26,0,0,0,0V266l.3.47.49-2.57-.72-8.18-.7-2.47,2.25-1.49,2.13-2.75,1.53-3.14.62-2.63.62-1.73,4-6.39,0,.11-2,4.83-2.58,4.6.56,1.12.15.27,1,1,1.33.53,1.62,0-1.33,3.76-1.38,2.76-.6.48-.64.07-.5.39-.22,1.47.12,3.27-.12,1-2.32,7.41.09,1.37.18,2.75,2.39,2.85.68.81-2.74,5.74,4.37,3.18,6.35.5,3.23-2.29-.61-2.47-1-1.93-.4-.73-.49-.61-1.21-1.53-1.37-.88-.41-1.5,4.62-8.81-.18-1.6-.59-1.18-.68-1-.42-1-.12-1.67.16-2.87,0-1.18v0l-.08-.22-.37-1-.22-.2-.27-.25-.27-.57.27-1.54.65-1.32,1.79-2.35.37-1.53.29-2.89,1.28-5.8,1.3-13.51.84-1.54.9-.76.69-.92.29-2V212l.79-2.82,1.86-1.82,2.21-1.51,1.27-1.37,1.57.91,3.61,1.38,4.05.38L295,208.6l3.65,2.06.78,5.71-2.49,5.3-4.28,3.51-.18,1-.63,1.24-2.3,1.07-1.5,3.43,2,3.88,3.41,13.95.85,2.45h2.84l2.31-1,2.45,1.84,2.77-.1,2,1.62,1.53,2,3,1.65,12.62,5.81,2.71.68,2.61,1.05,2.06,1.48,2.53.37,4.54,1.76,4.12,3.35,2.24,2.26,2.47,1.54,2.58-.09,2.06,1.7.05,1.73-.24,1.74.39,2.95-.18,2.52.25,2.4,1.91.81,2.21.16,1.13,1.9.36,2.32,1.28,3.2.68,3.27-.52,4.8,3.48,3.35-.64,2.26.36,2.42,1.21.68,1,.29,1,2.15,1.36,2.29.94,2.37,0,2.38.49.34.7,1,.39,4.61.77,4.28,2.5,2.45-.05,1.62-.4,1.64,0,1.25-.5,1.19-1.94,1.77-.34,2.92,1.38,2.77.83,1.38.7,1.45.38,1.73-.28,1.67-.77,1-.07,1.43-1.64.76-1.61.42,1.1,1.75.82,1.87-1.47.71-2-.34-2,1.12.21,1.54-.19,1.43-2.35-.17-2.13-1.52h-2l-.44,2.76-.58.75-.47.81.11.91.23.64-2.46.72-2.83-.31-1.26-2.66-2-2.07-3.27-.44-3,1.2-.48,2.62.15,2.83-.45,1.63-1,1.34-1.46.06-6.69,1.49-3.21,1.5-3,2.16-2.83,2.53-2.79,1.62-2.39-1.75-3.41-3.89-.79-1.14-.39-1.18-1.24-1.37-3.81.68-3.35,2.38-4,1.18-3.77-2.67-3.29.14L289,382.67l-2.91,1.15-2.4-.93-2,1.25L280.1,384,279,382.76l-2.65.34-2.54.67Z" transform="translate(-246.65 -29.63)"/><path class="cls-1" d="M273.52,426.53l1.36-3.28.35-1.57,0-1.6v0l-6.55-23.3.9-3.42,0,2.11.51,1.32.73,1,.65,1.2,1.32,4.63.64,1.11h.85l.2-1.32.39-.56.35-.09h0l.07.07,0-4.21v0l-.3-1.85-.69-1.52-.65-.44-1.8-.4-.8-.54-.09-.19-.49-1,.22-1.1.52-1,.28-1-.81-6,3.26.16,2.54-.67,2.65-.34L280.1,384l1.62.19,2-1.25,2.4.93,2.91-1.15,5.22-4.09,3.29-.14,3.77,2.67,4-1.18,3.35-2.38,3.81-.68,1.24,1.37.39,1.18.79,1.14,3.41,3.89,2.39,1.75.23,1.84-1.35,1.07-.37,4.74-1.78,1.68-2.16,1.12-.58,3.91,1.67,3.46,3.33-.8,2.89.85-1,2.34-2,1.37-1.74,4-.71,4,2,6.55,0,1.25-.42,1.14,3,.2,2.36,1.2.42,2.51-1.82,1.71.18,1.33.07,1.35-1.75,2.15-1.49,2.36-.58,1.92-.7,1.63,3.36,3.58-3,2.71.45,2.84,2.39,6.32-.19,2.21.87,2.59,1.33,2.76,4.18,4.05.8,4,1.52,1.42,1.91.74,3.06,2.8,2,3.79-2.07.8.72,2.34,5.79,8.15,4.95,8.61L341.56,502l-4.78,3-2.54,1.12V509l1,3-.27,2.76-2.14-1.71-2.11-2-4-3.12-4.16.36-3.74,2.1-5.93-1.13-2.28-1.53-2.21-1.94-2.71-1.19-2.51-.51-5-2.34-.69-1.17-1-1-1.39.55-.89.62-.79-.74-.74-1-.95-.21-.58-2.37-.29-.23-.59-.36-.61-.54-.38-.75.16-.81.67-.2.7.08h0l.33,0-1-7.22-.09-.58-2.86-7.34-6.62-17-5.11-13.13-1.86-10.41-.18-1v-9.92Z" transform="translate(-246.65 -29.63)"/><path class="cls-1" d="M346.87,564.48l-.88-.13-.66-.29-.45-.65-.58-.64-1.07-.3-.64.23-.5.44-.53.38-.72,0-.24-.2-.22-.2-.87-1.23-.43-.26-.11-.07h0l-1-.34-5.85-2.1-2.39-.5-1.71-.35-3-2.4-.67-.32-1.32-.64h0l-1,1-2.55-2.06L308.36,542l-.91-.71h0l-.1-.13-.32-.37-.16-.59,0-1.16-.34-.61-.47-.61-1.24-1.62-6.32-13.36-.26-1.28h0l0-1.14,0-1.14v0l-.23-.69L297,516.17l-1.16-6.43-2.51-4.52-1.59-6.46.95.21.74,1,.79.74.89-.62,1.39-.55,1,1,.69,1.17,5,2.34,2.51.51,2.71,1.19,2.21,1.94,2.28,1.53,5.93,1.13,3.74-2.1,4.16-.36,4,3.12,2.11,2,2.14,1.71.27-2.76-1-3v-2.95l2.54-1.12,4.78-3,4.88-1.12,1.67,1.73,1.87,1.58,2.31.94,2,0,4.26,2.1,2.2-.07,1.18,1.7,2.67-.38,2.69-.62.95-2.24h2.33l6-.8,2,3.66-.91,2.44,2.47.44,3.28-.55,1.53,1.89-.12,1.3,1.76,1.3-.72.74v1.31l7.82,1.5,10,3.66,2.63.41,2.61-.63,2.61-.25,2.08,1.64,1.6,1.85,5,1,2.87,1,.69-2.42-1.27-3.51-2.52-2.81,3.37-2.21,3.45-1.87,3.87-1.26,3-2.25-1.32-3.09.67-3.12h1.72l1.86-.14,1.13-1.6,0-1.82,1.68,1.2,1.31-1.48,3.43,0,3.4.43,2.34.84,1,2.52,1.36.19,1.47-.07,1.25-.89,1.73-.19,2.56,3.36,2.09,3.56,3.43,1.42,3.75-2,1.34-1.36,2.09-.87,4-1.05,8.13-3.17,1.5-1.08.34.4,1.2.17,3.66-1.33,3.82.87,1.78-2.93v-1.2l-.09-1.12.63-.85.59-1-.71-1.85-.05-2.33,2.7-2.15,3.26-1.48,2.49-2.4,2.9-2.21,3.68-.68,2.44-2.86,4.09,5.05,1.58.1,1.75.24,2.28,2.6,3.32,1.05,1.22.4-4.18,6.64-4.3,4.31-8,5.64-2.6.78-3.47,1.87-25.42,20-5.08,2.76-16.5,5.87h0l-.23-2V535l-1-.77h0l-.22,0-.83.23-.52,1.1-.27,2.32-.75.87-1.2.33-1.59.71-3,1.79-3,1.32L432.24,546l-6.91,2.38-7.58,1.37-3.45,1.34L412.22,554l-3.71-.73-2.28.88-1.29.51-5.27,3.9-5.27,3.9-.33.38-2.1,2.44-5.61-.33h0l-2.34.33-1.83.7-1.88,1.07-3.33,2.5-1,.23-1,.21-2.27-.88-2.41-1.24-1.38-.42-1-.29-7.92.94-2.26-.44-1.15-1.14L356,565l-.58-.88-.43-.65-2.32,1.35-2.07.15Z" transform="translate(-246.65 -29.63)"/><path class="cls-1" d="M421.22,464.78,419,468.19l-1.42,3.56-2.5,3-1.3,3.06-1.35,6-2.59,3.69-2.06,3.91.41,2.27.86,2.17.11,8.52,1.53,2.94,1.94,2.59,2.62,1.41,2.49,1.76,1.32,2.52,1.07,3.2,2.52,2.81,1.27,3.51-.69,2.42-2.87-1-5-1-1.6-1.85-2.08-1.64-2.61.25-2.61.63-2.63-.41-10-3.66-7.82-1.5v-1.31l.72-.74-1.76-1.3.12-1.3-1.53-1.89-3.28.55-2.47-.44.91-2.44-2-3.66-6,.8h-2.33l-.95,2.24-2.69.62-2.67.38-1.18-1.7-2.2.07-4.26-2.1-2,0-2.31-.94-1.87-1.58-1.67-1.73-4.95-8.61-5.79-8.15-.72-2.34,2.07-.8-2-3.79-3.06-2.8-1.91-.74-1.52-1.42-.8-4-4.18-4.05-1.33-2.76-.87-2.59.19-2.21-2.39-6.32-.45-2.84,3-2.71-3.36-3.58.7-1.63.58-1.92,1.49-2.36,1.75-2.15-.07-1.35-.18-1.33,1.82-1.71-.42-2.51-2.36-1.2-3-.2.42-1.14,0-1.25-2-6.55.71-4,1.74-4,2-1.37,1-2.34-2.89-.85-3.33.8-1.67-3.46.58-3.91,2.16-1.12,1.78-1.68.37-4.74,1.35-1.07-.23-1.84,2.79-1.62,2.83-2.53,3-2.16,3.21-1.5,6.69-1.49,1.46-.06,1-1.34.45-1.63-.15-2.83.48-2.62,3-1.2,3.27.44,2,2.07,1.26,2.66,1.68,4.24,5.92,5.19-.23,2.67,1.16.81,3.48,1.93,1.66,2-.33,2.46,0,2,2,2,1.6,2-.78,1.81-1.07,1.7-1.49.35-1.5.09L361.91,404l-4.74.78-1.57,1.45,2.08,5,1,1.72-1,2.12-.07,2.74.18.44.46.13L357,420.3,355.15,422l-1,.35-.75,1,.76,1,.88.9-1,5.12,1.19,4,4,1.29,3.17,2.36,1.05,3.62.23,1.84-1.57,1.39-.1,2.26.93,1-1,1-.49,1.41,2.81,2.15,3.34.28,7.11,1.6,7.51,1,2.89-.48,3.4-.27L393,455l4.27-.58,7.76-4.06.37,5.07,1-.5,1-.4,1.87,2.06,2.36.73-.33,1.29-.43,1.07-.53.54-3.71,1.69-.65,1.81,1.45,2.28,2.09,1.69,3.13.6,3.3-1.35,2.78-2.06Z" transform="translate(-246.65 -29.63)"/><path class="cls-1" d="M420.1,518.77l-1.07-3.2-1.32-2.52-2.49-1.76-2.62-1.41-1.94-2.59-1.53-2.94-.11-8.52-.86-2.17-.41-2.27,2.06-3.91,2.59-3.69,1.35-6,1.3-3.06,2.5-3,1.42-3.56,2.25-3.41-2.51.13L415.93,467l-3.3,1.35-3.13-.6L407.41,466,406,463.75l.65-1.81,3.71-1.69.53-.54.43-1.07.33-1.29-2.36-.73-1.87-2.06-1,.4-1,.5-.37-5.07,2.59-.64,1.4-2-1.26-.64-1.26-.81,2-3.28-.54-.93-.69-.84-.78-2.12-.91-1.92L401.18,435l-.16-2.19,2.48-.13,2.56.15,1.84-2.12.67-2.73,2.16-2,2.48-1.19,5.18-1.12,3-4.53.62-2.69,1.26-2.44,1.11-1,.89-1.14.45-1-.2-1-.75-2.45.67-1.27.93-1.16-.49-.7-.63-.74-.28-1.17.3-1.26-1-3.44.11-2.48,1.74-1.06,2.93-.83,3.69-3.44.24-4.47-3-10-1.2-20.85-.67-11.3,1.32-6.49.38.37,2.07,1.27.89,2,.18,2.25,1.09,3.31,3.37,5.64,2.49-.88,1.38-.32,1.65-.64,2.92-2.7,6.72-3.77,6.08,1.32.53,6.91-1.45,6.71-.76,1.42-.38,1.24.41,1.71.55,1.72.89,6.07,1.52,3.23,2,2,1.19-.29,1.68.32.57,1.23.94,1.6,1.24,2.49.48,2.48,1.07,2.67,1.2,2.24,2.78-1,2.55-1.87-.73-5.15v-5.3l3.4.15,2.77-1.54.64-1,.94-1.15.63-1.36-.16-1.62-.75-1.63,0-1.8,1.4-.11,1.9-.49.93-1.48.51-1.29,1.52-.68,1.65-.57,3.43-1.84,2.69.73-2,3.15.87.52.9.16-.27,1.86,1.63,7.27-.2,3.29.55,2.66,3,2.64,1.91,3.35.4,3,3,4.13L504,393.21l-2.86,3.39-1.6,4.28,1.77,3.23.55,2.14,1.06,1.89,1.11.48h1l.85.51.7.63,4.89,1.26,4,2.44-.27,2.59-.63,2.73,1,2.65v2.66l1.64,2.36.68,2.73-3.57,50.59-2.44,2.86-3.68.68-2.9,2.21-2.49,2.4-3.26,1.48-2.7,2.15.05,2.33.71,1.85-.59,1-.63.85.09,1.12v1.2l-1.78,2.93-3.82-.87-3.66,1.33-1.2-.17-.34-.4-1.5,1.08L476.06,507l-4,1.05-2.09.87-1.34,1.36-3.75,2-3.43-1.42-2.09-3.56-2.56-3.36-1.73.19-1.25.89-1.47.07L451,504.9l-1-2.52-2.34-.84-3.4-.43-3.43,0-1.31,1.48-1.68-1.2,0,1.82-1.13,1.6-1.86.14h-1.72l-.67,3.12,1.32,3.09-3,2.25-3.87,1.26-3.45,1.87Z" transform="translate(-246.65 -29.63)"/><path class="cls-1" d="M397.69,281.88l1.2,1.17,1.89,2.15,0,2.43.75.82,1.15.42.88-.56.05-.88,1.66-.79,1.58.46,2.17.44,2,1.21-4.11,4.31-1.34,6.55-.38,3.15-1.32,5.59-.47,1-.25,1-4,.89-.92,3.79,1.86,8.4-.26,2.69,1.36,1.94,3.61.79,3.44-1.44,2.73-2.49,1.17,1.64,2.1,1.31.59-2.42.31-2.47,7.35.5,7.09-1.29-.1,2.31,1,3.11.3,2.66-1.32,6.54-1.32,6.49.67,11.3,1.2,20.85,3,10-.24,4.47-3.69,3.44-2.93.83-1.74,1.06-.11,2.48,1,3.44-.3,1.26.28,1.17.63.74.49.7-.93,1.16-.67,1.27.75,2.45.2,1-.45,1-.89,1.14-1.11,1-1.26,2.44-.62,2.69-3,4.53-5.18,1.12L410.73,426l-2.16,2-.67,2.73-1.84,2.12-2.56-.15-2.48.13.16,2.19,4.37,2.21.91,1.92.78,2.12.69.84.54.93-2,3.28,1.26.81,1.26.64-1.4,2-2.59.64-7.76,4.06L393,455l-4.54-.15-3.4.27-2.89.48-7.51-1-7.11-1.6-3.34-.28-2.81-2.15.49-1.41,1-1-.93-1,.1-2.26,1.57-1.39-.23-1.84-1.05-3.62-3.17-2.36-4-1.29-1.19-4,1-5.12-.88-.9-.76-1,.75-1,1-.35L357,420.3l1.21-1.95-.46-.13-.18-.44.07-2.74,1-2.12-1-1.72-2.08-5,1.57-1.45,4.74-.78,2.15-2.33,1.5-.09,1.49-.35,1.07-1.7.78-1.81-1.6-2-2-2,0-2,.33-2.46-1.66-2-3.48-1.93-1.16-.81.23-2.67-5.92-5.19L352,372.39l2.83.31,2.46-.72-.23-.64-.11-.91.47-.81.58-.75.44-2.76h2l2.13,1.52,2.35.17.19-1.43-.21-1.54,2-1.12,2,.34,1.47-.71-.82-1.87-1.1-1.75,1.61-.42,1.64-.76.07-1.43.77-1,.28-1.67-.38-1.73-.7-1.45-.83-1.38-1.38-2.77.34-2.92,1.94-1.77.5-1.19,0-1.25.4-1.64.05-1.62-2.5-2.45-.77-4.28-.39-4.61-.7-1-.49-.34,0-2.38-.94-2.37L365.43,317l-1-2.15-1-.29-1.21-.68-.36-2.42.64-2.26,2.92-2.16,4.6-1.71,2.42-2.93,2.2.08,1.64,1.09,2-1.41,1-1.67.95-.67.89-.52-.08-1-.32-.64,1.76-1.82,1.32-2,0-2.57.76-2.21H386l1,.26.79-.56,2.66-2.8,1.78-1.57,2.61-1.32Z" transform="translate(-246.65 -29.63)"/><path class="cls-1" d="M429.57,322.18l-7.09,1.29-7.35-.5-.31,2.47-.59,2.42-2.1-1.31L411,324.91l-2.73,2.49-3.44,1.44-3.61-.79-1.36-1.94.26-2.69-1.86-8.4.92-3.79,4-.89.25-1,.47-1,1.32-5.59.38-3.15,1.34-6.55,4.11-4.31-2-1.21-2.17-.44-1.58-.46-1.66.79-.05.88-.88.56-1.15-.42-.75-.82,0-2.43-1.89-2.15-1.2-1.17-2.86,1.17-2.61,1.32-1.78,1.57-2.66,2.8-.79.56-1-.26h-1.37l-.76,2.21,0,2.57-1.32,2-1.76,1.82.32.64.08,1-.89.52-.95.67-1,1.67-2,1.41-1.64-1.09-2.2-.08L370,305.29l-4.6,1.71-2.92,2.16L359,305.81l.52-4.8-.68-3.27-1.28-3.2-.36-2.32-1.13-1.9-2.21-.16-1.91-.81-.25-2.4.18-2.52-.39-2.95.24-1.74-.05-1.73-2.06-1.7-2.58.09-2.47-1.54-2.24-2.26-4.12-3.35-4.54-1.76-2.53-.37-2.06-1.48-2.61-1.05-2.71-.68-12.62-5.81-3-1.65-1.53-2-2-1.62-2.77.1-2.45-1.84-2.31,1h-2.84l-.85-2.45L290,235.77l-2-3.88,1.5-3.43,2.3-1.07.63-1.24.18-1,4.28-3.51,2.49-5.3-.78-5.71,1.13.56,1.32.15.28-12.83-1.09-8.12,6.1,2.5,6.72,0,13.32-3.51.05,4.5,1.4,3.9,2.08.72,2,.92.88,1.71.51,1.88,1.45,2.93,2.89,1.55,1.43.4,1.33.08,2.09-3.79,2.44-1.06,2.54-6,5.4-7,4.17-1.92,2.53,1.35,2.32,1.66,4.36,0,3.65-2.8,3.47-3.12,3-3.5,1.65-2.55L380,176.9l3.25-2.59-1.14-3.58-2.52-3.27L376,166.22l-.25-3,10.19-.35,4-2.79,3.6-1,3.76-.71,3.86-1.59,4,.09,3.5,2,6,4.18,2.1,2.32,1.11,1.49,1.3,1-1.6,3.59-2.32,3.44.09,6,2.53,5.57,1.05,2.89-2.13,5,.12,2.83,1.16,1.32,1.45,1.43.57,3.3,3.62,5.4,1.93,4.6,1.23,1.56,1.58,1.23.92,2.13-1.13,2-1.95,1.27L424.54,223l-.56,1.67-.31,1.74-3,10.63,2.05-.6,1.6,2.37,2.22.86,2.09,1.65.57,2.88,1.71,1.73,5.77-.57,10.38,2.54h2.45l2.27,1.3,2.21,1.7,2.42,1.25,1.73-.14,1,1.39.22,1.76-.06,1.78.48,2.63-.73,1.72-1.59,1,.54.39.66.22,3.44-.78,1.94-4.54.69-1.33.87-3.61.95-.83,1-.77.9-1.66,1.25-1.34h3.83l.73,7.21L473.18,277l1,5.09,2.29,5,1.13,5.15-1.26.1-5-.66-3.92.55-3.08,2.07-1,4L462.16,309l1.94,10.7-.63,3.11.43,3.26-.75,1.48-.88.92-.63,1.62-.33,1.42-2.67-.32-3.23-1.85-6.62-2.06-4.05-4.07-5-1.92-2.51.44-5.11.49Z" transform="translate(-246.65 -29.63)"/></svg>